<svg xmlns="http://www.w3.org/2000/svg" version="1.1" xmlns:xlink="http://www.w3.org/1999/xlink" xmlns:svgjs="http://svgjs.dev/svgjs" width="1000" height="623" viewBox="0 0 1000 623"><g transform="matrix(1,0,0,1,-0.6060606060606233,109.62823649449967)"><svg viewBox="0 0 396 247" data-background-color="#ffffff" preserveAspectRatio="xMidYMid meet" height="623" width="1000" xmlns="http://www.w3.org/2000/svg" xmlns:xlink="http://www.w3.org/1999/xlink"><g id="tight-bounds" transform="matrix(1,0,0,1,0.2400000000000091,-0.09999999999999432)"><svg viewBox="0 0 395.52 247.2" height="247.2" width="395.52"><g><svg></svg></g><g><svg viewBox="0 0 395.52 247.2" height="247.2" width="395.52"><g transform="matrix(1,0,0,1,75.54432,51.65044645161291)"><svg viewBox="0 0 244.43135999999998 143.89910709677417" height="143.89910709677417" width="244.43135999999998"><g><svg viewBox="0 0 244.43135999999998 143.89910709677417" height="143.89910709677417" width="244.43135999999998"><g><svg viewBox="0 0 244.43135999999998 143.89910709677417" height="143.89910709677417" width="244.43135999999998"><g><svg viewBox="0 0 244.43135999999998 143.89910709677417" height="143.89910709677417" width="244.43135999999998"><g id="textblocktransform"><svg viewBox="0 0 244.43135999999998 143.89910709677417" height="143.89910709677417" width="244.43135999999998" id="textblock"><g><svg viewBox="0 0 244.43135999999998 143.89910709677417" height="143.89910709677417" width="244.43135999999998"><g transform="matrix(1,0,0,1,0,0)"><svg width="244.43135999999998" viewBox="1.75 -35.75 62 36.5" height="143.89910709677417" data-palette-color="#ee3e38"><path d="M14.75 0.75Q11.2 0.75 8.1-0.85L8.1-0.85Q6.7-1.55 5.75-2.5L5.75-2.5Q5.05-1.35 4-0.45L4-0.45Q3.1 0.2 3 0.25L3 0.25 1.75 0.25 1.75-9.25 3.75-9.25Q4.5-6.8 5.85-4.85L5.85-4.85Q8.9-0.5 13.75-0.5L13.75-0.5Q16.6-0.5 18.3-2.2 20-3.9 20-6.75L20-6.75Q20-8.4 19.03-9.7 18.05-11 16.6-12 15.15-13 12.55-14.5L12.55-14.5Q9.25-16.35 7.2-17.85 5.15-19.35 3.7-21.63 2.25-23.9 2.25-27L2.25-27Q2.25-29.45 3.63-31.43 5-33.4 7.75-34.58 10.5-35.75 14.5-35.75L14.5-35.75Q17.4-35.75 20.3-34.1L20.3-34.1Q21.4-33.5 22.5-32.5L22.5-32.5Q23.35-33.8 24.25-34.55L24.25-34.55Q25.15-35.2 25.25-35.25L25.25-35.25 26.5-35.25 26.5-25.75 24.5-25.75Q23.85-28.15 22.55-30.1L22.55-30.1Q21.35-32 19.58-33.25 17.8-34.5 15.5-34.5L15.5-34.5Q13.55-34.5 12.15-32.95 10.75-31.4 10.75-29L10.75-29Q10.75-27.15 11.83-25.68 12.9-24.2 14.48-23.1 16.05-22 18.75-20.45L18.75-20.45Q21.9-18.65 23.85-17.25 25.8-15.85 27.15-13.78 28.5-11.7 28.5-9L28.5-9Q28.5-6.3 26.95-4.08 25.4-1.85 22.3-0.55 19.2 0.75 14.75 0.75L14.75 0.75ZM27.75 0L27.75-0.75 31.75-2.25 45.5-35.5 47-35.5 61.25-1.5 63.75-0.75 63.75 0 57.75 0Q55.15 0 53.5-1.18 51.85-2.35 51.05-4.25L51.05-4.25 48.5-10.25 36.55-10.25 33.25-2.25 37-0.75 37 0 27.75 0ZM42.5-24.65L37.05-11.5 48-11.5 42.5-24.65Z" opacity="1" transform="matrix(1,0,0,1,0,0)" fill="#ee3e38" class="wordmark-text-0" data-fill-palette-color="primary" id="text-0"></path></svg></g></svg></g></svg></g></svg></g><g></g></svg></g></svg></g></svg></g><g><path d="M136.789 17.679A122.216 122.216 0 0 1 258.731 17.679L245.754 17.679A109.239 109.239 0 0 0 149.766 17.679L136.789 17.679M136.789 229.521A122.216 122.216 0 0 0 258.731 229.521L245.754 229.521A109.239 109.239 0 0 1 149.766 229.521L136.789 229.521" fill="#ee3e38" stroke="transparent" data-fill-palette-color="tertiary"></path></g></svg></g><defs></defs></svg><rect width="395.52" height="247.2" fill="none" stroke="none" visibility="hidden"></rect></g></svg></g></svg>