<?xml version="1.0" standalone="no"?>
<!DOCTYPE svg PUBLIC "-//W3C//DTD SVG 20010904//EN"
 "http://www.w3.org/TR/2001/REC-SVG-20010904/DTD/svg10.dtd">
<svg version="1.0" xmlns="http://www.w3.org/2000/svg"
 width="4167.000000pt" height="2596.000000pt" viewBox="0 0 4167.000000 2596.000000"
 preserveAspectRatio="xMidYMid meet">
<metadata>
Created by potrace 1.16, written by Peter Selinger 2001-2019
</metadata>
<g transform="translate(0.000000,2596.000000) scale(0.100000,-0.100000)"
fill="#000000" stroke="none">
<path d="M18870 25525 c0 -9 -9 -15 -24 -15 -32 0 -40 -14 -41 -75 0 -47 -1
-50 -30 -55 -28 -5 -30 -8 -31 -55 -2 -75 -2 -75 -34 -75 -26 0 -30 -4 -30
-26 0 -17 -6 -28 -19 -31 -13 -3 -18 -10 -13 -21 5 -15 4 -15 -11 -3 -16 12
-17 9 -17 -43 0 -55 0 -56 -29 -56 -23 0 -30 -5 -34 -27 -3 -15 -3 -42 0 -60
5 -30 3 -33 -19 -33 -36 0 -48 -19 -48 -77 0 -52 0 -53 -30 -53 -27 0 -30 -3
-30 -30 0 -22 -5 -30 -18 -30 -30 0 -42 -22 -42 -77 0 -52 -1 -53 -29 -53 -34
0 -42 -19 -34 -80 6 -39 5 -40 -25 -40 -29 0 -31 -3 -37 -47 -3 -27 -7 -55 -8
-63 -2 -9 -13 -15 -30 -15 -24 1 -27 -3 -27 -31 0 -28 -4 -33 -27 -36 -27 -3
-28 -6 -31 -60 -3 -49 -6 -58 -22 -58 -36 0 -51 -27 -44 -81 l7 -49 -30 0
c-26 0 -32 -5 -38 -32 -5 -18 -9 -40 -9 -48 -2 -26 -18 -42 -38 -37 -15 4 -19
1 -18 -16 4 -50 1 -57 -30 -57 l-30 0 0 -60 c0 -60 0 -60 -30 -60 -29 0 -29 0
-32 -67 -3 -66 -4 -68 -30 -71 -20 -2 -28 -9 -28 -22 0 -11 -6 -23 -14 -27 -8
-4 -16 -17 -18 -28 -2 -13 -10 -19 -21 -17 -15 3 -17 -3 -15 -34 3 -35 1 -39
-29 -47 -32 -10 -33 -11 -33 -68 0 -59 0 -59 -30 -59 -27 0 -30 -3 -31 -32 -3
-94 -2 -93 -31 -93 -24 1 -28 -3 -28 -28 0 -20 -6 -30 -20 -34 -11 -3 -20 -12
-20 -20 0 -10 -6 -13 -16 -9 -14 5 -16 1 -11 -33 6 -46 0 -58 -33 -62 -23 -4
-25 -8 -28 -66 -3 -62 -3 -63 -32 -63 -27 0 -30 -4 -31 -32 -1 -18 -3 -40 -4
-48 -1 -8 -3 -21 -4 -29 -1 -9 -11 -12 -30 -9 -28 4 -29 3 -24 -27 5 -29 2
-32 -28 -41 -32 -9 -34 -13 -35 -54 -1 -25 -2 -51 -3 -57 0 -7 -14 -13 -31
-13 -30 0 -30 0 -30 -59 0 -58 -1 -60 -27 -63 -26 -3 -29 -8 -38 -63 -10 -55
-13 -60 -37 -60 -22 1 -25 -3 -24 -29 1 -26 -3 -31 -29 -36 -28 -5 -30 -8 -31
-55 -1 -28 -2 -56 -3 -62 -1 -7 -14 -13 -31 -13 l-30 0 0 -60 c0 -59 0 -60
-28 -60 -27 0 -29 -3 -38 -57 -8 -53 -11 -58 -34 -58 -22 0 -25 -5 -25 -35 0
-31 -3 -35 -30 -40 -29 -5 -30 -7 -30 -60 0 -53 -1 -55 -30 -60 -29 -5 -30 -8
-31 -57 -1 -71 -9 -86 -39 -81 -22 5 -25 2 -25 -23 0 -19 -5 -29 -15 -29 -9 0
-14 -8 -12 -22 1 -17 -3 -23 -18 -23 -17 0 -20 -7 -20 -40 0 -38 -2 -40 -33
-43 l-34 -3 4 -57 3 -57 -32 -3 c-32 -3 -32 -3 -35 -65 -3 -59 -4 -62 -30 -65
-24 -3 -28 -8 -28 -33 0 -24 -4 -29 -24 -29 -36 0 -48 -22 -41 -74 7 -44 6
-46 -16 -46 -43 0 -51 -13 -48 -71 l4 -54 -32 -3 c-29 -3 -33 -7 -34 -35 -2
-80 -3 -82 -31 -85 -22 -3 -27 -9 -30 -35 -2 -27 -8 -33 -30 -35 -31 -4 -39
-23 -35 -82 2 -31 -1 -35 -28 -40 -29 -5 -30 -7 -30 -65 l0 -60 -32 -3 c-28
-3 -33 -7 -34 -30 -4 -77 -12 -96 -40 -89 -16 4 -19 0 -19 -29 0 -27 -4 -34
-19 -34 -35 0 -52 -28 -49 -79 3 -46 3 -46 -30 -49 l-34 -3 4 -57 c3 -56 3
-57 -27 -62 -25 -4 -31 -10 -33 -38 -2 -17 -8 -32 -13 -32 -6 0 -7 -5 -4 -10
9 -15 -15 -42 -32 -36 -9 4 -13 -5 -13 -34 0 -36 -2 -39 -32 -42 l-33 -3 0
-60 0 -60 -34 -3 -33 -3 4 -55 c5 -60 -7 -80 -42 -69 -17 5 -20 2 -20 -24 0
-24 -5 -32 -24 -37 -26 -6 -36 -29 -36 -86 0 -35 -2 -38 -29 -38 -35 0 -44
-19 -35 -76 6 -42 6 -43 -27 -46 l-34 -3 -3 -62 c-3 -62 -3 -63 -32 -63 -26 0
-30 -4 -30 -29 0 -24 -5 -30 -30 -34 -29 -6 -30 -8 -30 -66 l0 -60 -32 -3 -33
-3 3 -57 2 -57 -32 -3 c-32 -3 -33 -5 -36 -53 -4 -56 -17 -79 -44 -72 -15 4
-18 -1 -18 -29 0 -31 -3 -34 -30 -34 l-30 0 0 -60 c0 -57 -1 -60 -24 -60 -35
0 -48 -22 -44 -76 3 -47 2 -49 -27 -54 -27 -5 -31 -10 -40 -60 -9 -47 -14 -55
-33 -54 -19 0 -22 -5 -22 -38 0 -36 -2 -38 -30 -38 l-30 0 0 -60 c0 -59 0 -60
-29 -60 -23 0 -30 -5 -34 -27 -3 -16 -3 -40 0 -56 6 -33 -13 -60 -39 -54 -13
4 -18 0 -18 -13 0 -10 -7 -25 -15 -34 -8 -8 -15 -22 -15 -31 0 -12 -6 -16 -20
-12 -18 5 -20 0 -20 -38 0 -40 -2 -44 -27 -47 -27 -3 -28 -6 -31 -65 -3 -62
-3 -63 -32 -63 -34 0 -45 -24 -36 -74 7 -37 -12 -63 -39 -52 -11 4 -15 -1 -15
-17 0 -31 -11 -44 -40 -48 -23 -4 -25 -9 -28 -61 -3 -57 -4 -58 -32 -58 -30 0
-30 0 -30 -60 0 -59 -1 -61 -29 -66 -30 -6 -41 -31 -41 -96 0 -28 -2 -30 -31
-26 -27 4 -30 2 -25 -16 6 -26 -2 -38 -36 -53 -26 -12 -28 -17 -28 -68 0 -54
0 -55 -30 -55 l-30 0 0 -60 c0 -60 0 -60 -29 -60 -28 0 -30 -2 -37 -57 -7 -61
-18 -76 -47 -67 -14 5 -17 1 -12 -18 7 -30 -4 -45 -35 -49 -23 -4 -25 -9 -30
-64 -5 -57 -7 -60 -32 -63 -27 -3 -28 -5 -28 -63 0 -59 0 -59 -30 -59 -25 0
-30 -4 -30 -24 0 -14 -5 -28 -10 -31 -6 -4 -8 -15 -5 -24 8 -27 -20 -47 -42
-30 -15 13 -16 11 -11 -21 7 -48 1 -60 -33 -60 -29 0 -29 0 -29 -59 0 -58 -1
-60 -27 -63 -27 -3 -28 -6 -31 -65 -2 -51 -6 -63 -22 -68 -11 -4 -24 -3 -30 0
-6 4 -10 -5 -10 -20 0 -14 -7 -28 -15 -31 -10 -4 -13 -13 -10 -25 6 -19 -3
-24 -34 -19 -10 1 -12 -6 -8 -29 9 -44 -1 -61 -35 -61 -29 0 -29 -1 -28 -47 3
-72 2 -73 -30 -73 -29 0 -29 -1 -32 -62 -3 -60 -4 -63 -30 -66 -21 -3 -27 -9
-30 -30 -2 -21 -9 -28 -30 -30 -31 -4 -41 -25 -36 -82 3 -31 0 -35 -27 -40
-28 -5 -30 -8 -32 -55 -1 -28 -2 -56 -2 -62 -1 -8 -14 -13 -31 -13 -27 0 -30
-3 -31 -32 -1 -18 -3 -40 -4 -48 -1 -8 -3 -21 -4 -29 -1 -9 -11 -12 -30 -9
-28 4 -29 3 -24 -25 7 -32 -7 -47 -45 -47 -23 0 -24 -3 -20 -57 l3 -58 -32 -3
c-32 -3 -32 -3 -35 -65 -3 -59 -4 -62 -30 -65 -24 -3 -28 -8 -28 -33 0 -22 -5
-29 -20 -29 -14 0 -18 -5 -13 -17 5 -12 2 -15 -10 -10 -18 7 -22 -4 -18 -60 2
-29 0 -32 -31 -35 l-33 -3 0 -60 0 -60 -32 -3 c-32 -3 -32 -3 -35 -65 -3 -60
-4 -62 -30 -60 -23 1 -27 -3 -30 -30 -2 -27 -8 -33 -30 -35 -30 -4 -33 -13
-29 -84 2 -35 1 -37 -31 -40 l-33 -3 2 -57 c2 -54 0 -58 -20 -58 -36 0 -47
-14 -48 -61 -2 -50 -13 -69 -40 -69 -14 0 -19 -7 -19 -30 0 -25 -4 -30 -25
-30 -30 0 -38 -16 -39 -79 -1 -45 -2 -46 -34 -49 l-34 -3 4 -57 c3 -56 3 -57
-26 -62 -27 -5 -31 -10 -40 -60 -9 -46 -15 -56 -33 -58 -19 -3 -23 -10 -23
-38 0 -31 -3 -34 -29 -34 -35 0 -44 -19 -35 -75 l6 -42 -37 -7 -38 -7 6 -54
c6 -59 -7 -81 -43 -72 -17 4 -20 0 -20 -24 0 -16 -4 -29 -10 -29 -5 0 -10 -9
-10 -19 0 -25 -20 -38 -31 -20 -6 9 -9 -5 -9 -38 0 -52 -1 -53 -29 -53 -35 0
-44 -19 -35 -76 6 -42 6 -43 -27 -46 l-34 -3 -3 -62 c-3 -62 -3 -63 -32 -63
-26 0 -30 -4 -30 -29 0 -25 -4 -30 -27 -33 -26 -3 -28 -6 -31 -59 -3 -53 -4
-56 -35 -65 -32 -9 -32 -10 -29 -66 l2 -57 -32 -3 c-33 -3 -33 -4 -36 -60 -3
-57 -4 -58 -32 -58 -28 0 -30 -3 -30 -35 0 -32 -2 -35 -30 -35 l-30 0 0 -60
c0 -60 0 -60 -30 -60 -33 0 -41 -17 -37 -85 2 -37 0 -40 -25 -43 -29 -3 -41
-27 -40 -74 1 -31 -21 -53 -43 -44 -12 4 -15 -2 -15 -29 0 -29 -4 -34 -30 -40
-29 -6 -30 -8 -30 -66 0 -59 0 -59 -30 -59 -30 0 -30 0 -30 -59 0 -61 -16 -89
-45 -77 -10 3 -15 -1 -15 -14 0 -10 -7 -25 -15 -34 -8 -8 -15 -22 -15 -31 0
-12 -6 -16 -20 -12 -18 5 -20 0 -20 -38 0 -40 -2 -44 -27 -47 -27 -3 -28 -6
-31 -65 -3 -62 -3 -63 -32 -63 -32 0 -32 0 -34 -90 -1 -31 -4 -35 -28 -35 -21
1 -27 -5 -32 -28 -4 -17 -14 -31 -25 -34 -12 -3 -17 -11 -14 -19 3 -8 -1 -14
-11 -14 -12 0 -16 -10 -16 -45 0 -43 -1 -45 -30 -45 -30 0 -30 0 -30 -59 0
-58 -1 -60 -27 -63 -26 -3 -29 -7 -37 -66 -9 -62 -11 -64 -37 -60 -24 4 -26 1
-25 -26 1 -25 -4 -31 -31 -38 -33 -8 -33 -9 -33 -68 0 -60 0 -60 -30 -60 l-30
0 0 -60 c0 -60 0 -60 -29 -60 -28 0 -29 -2 -36 -59 -7 -59 -20 -76 -49 -65
-11 4 -14 -3 -13 -27 2 -30 -1 -34 -28 -39 -29 -5 -30 -7 -30 -60 0 -53 -1
-55 -30 -60 -29 -5 -30 -7 -33 -68 -3 -61 -3 -62 -32 -62 -27 0 -30 -3 -30
-30 0 -16 -4 -30 -10 -30 -5 0 -10 -11 -10 -25 0 -18 -5 -25 -19 -25 -11 0
-22 6 -25 13 -3 6 -4 -10 -3 -38 2 -50 2 -50 -31 -53 l-34 -3 4 -57 3 -57 -32
-3 c-32 -3 -32 -3 -35 -65 -3 -59 -4 -62 -30 -65 -22 -3 -28 -9 -28 -28 0 -19
-8 -28 -30 -36 -32 -11 -42 -33 -38 -82 3 -26 -1 -30 -30 -38 -33 -9 -34 -11
-32 -56 4 -70 3 -72 -30 -72 -30 0 -30 -1 -30 -52 0 -61 -10 -81 -36 -76 -14
2 -20 -5 -24 -27 -4 -24 -11 -31 -33 -33 -28 -3 -30 -8 -31 -77 -1 -36 -4 -40
-31 -45 -28 -5 -30 -8 -31 -55 -1 -28 -2 -56 -3 -62 -1 -7 -14 -13 -31 -13
-27 0 -30 -3 -32 -32 0 -18 -2 -37 -3 -43 -2 -5 -3 -18 -4 -27 -1 -12 -9 -18
-26 -18 -21 0 -25 -5 -25 -28 0 -23 -6 -30 -32 -37 -32 -10 -33 -12 -33 -65
l0 -55 -33 -3 -34 -3 4 -57 c3 -56 3 -57 -26 -62 -27 -5 -31 -10 -40 -60 -10
-51 -13 -55 -38 -55 -26 1 -27 -1 -22 -37 6 -37 6 -38 -25 -38 -35 0 -43 -18
-39 -85 3 -39 2 -40 -31 -43 l-34 -3 6 -54 c6 -59 -7 -81 -43 -72 -17 4 -20 0
-20 -23 0 -16 -6 -30 -12 -32 -7 -3 -13 -13 -13 -24 0 -12 -7 -19 -20 -19 -17
0 -20 -7 -20 -40 0 -36 -3 -40 -30 -45 -29 -6 -30 -7 -28 -62 l2 -57 -32 -3
c-32 -3 -32 -3 -35 -66 -3 -61 -3 -62 -32 -62 -27 0 -30 -3 -30 -30 0 -23 -5
-30 -19 -30 -29 0 -46 -29 -46 -79 0 -43 -2 -46 -30 -51 -29 -5 -30 -7 -30
-60 0 -55 0 -55 -33 -58 l-32 -3 0 -59 c0 -50 -3 -60 -20 -65 -11 -3 -24 -3
-30 0 -6 4 -10 -8 -10 -29 0 -33 -2 -36 -29 -36 -34 0 -44 -24 -35 -82 6 -36
5 -37 -27 -40 l-34 -3 0 -60 0 -60 -32 -3 c-29 -3 -33 -7 -34 -35 -3 -57 -4
-62 -13 -75 -4 -8 -17 -12 -27 -9 -16 4 -19 -1 -19 -34 0 -36 -2 -39 -29 -39
-34 0 -42 -19 -34 -80 6 -39 5 -40 -26 -40 -33 0 -37 -10 -32 -86 3 -36 -20
-59 -49 -51 -17 4 -20 0 -20 -24 0 -18 -5 -29 -14 -29 -9 0 -12 -7 -9 -20 4
-15 0 -20 -16 -20 -18 0 -21 -6 -21 -40 0 -36 -2 -40 -25 -40 -32 0 -46 -32
-38 -88 5 -40 5 -41 -28 -44 -33 -3 -34 -4 -35 -53 -1 -27 -2 -56 -3 -63 -1
-9 -11 -12 -28 -10 -25 3 -28 -1 -31 -29 -2 -25 -8 -33 -22 -33 -14 0 -18 -5
-13 -17 5 -12 2 -15 -10 -10 -15 5 -17 -1 -17 -43 0 -48 -1 -50 -29 -50 -23 0
-30 -5 -34 -27 -3 -15 -3 -42 0 -60 5 -29 3 -32 -28 -40 -33 -9 -34 -11 -37
-65 -3 -53 -5 -57 -30 -60 -15 -2 -28 -9 -28 -15 -1 -7 -2 -19 -3 -27 0 -8
-14 -17 -31 -21 -29 -6 -30 -8 -30 -66 0 -58 0 -59 -29 -59 -34 0 -42 -19 -34
-80 6 -39 5 -40 -25 -40 -26 0 -31 -4 -36 -33 -4 -17 -7 -41 -7 -52 0 -29 -19
-46 -42 -39 -17 5 -19 3 -14 -17 8 -31 -2 -46 -33 -50 -23 -4 -25 -9 -30 -64
-5 -56 -7 -60 -31 -63 -31 -4 -39 -25 -32 -82 6 -39 5 -40 -26 -40 -26 0 -31
-4 -31 -24 0 -14 -5 -28 -10 -31 -6 -3 -10 -17 -10 -31 0 -19 -5 -24 -26 -24
-23 0 -26 -3 -21 -27 7 -39 -2 -53 -34 -53 -29 0 -29 0 -29 -60 l0 -60 -30 0
c-27 0 -30 -3 -31 -32 -1 -18 0 -43 1 -56 2 -31 -18 -54 -41 -47 -15 5 -19 1
-19 -20 0 -18 -6 -29 -20 -32 -19 -5 -20 -14 -20 -158 0 -138 2 -154 18 -157
14 -3 17 -14 17 -58 0 -53 1 -55 33 -65 28 -8 32 -14 32 -42 0 -26 4 -33 20
-33 19 0 24 -10 21 -37 -1 -7 3 -13 9 -13 5 0 10 -13 10 -29 0 -26 4 -30 32
-33 l33 -3 0 -60 c0 -58 1 -60 30 -65 29 -5 30 -7 30 -60 0 -53 1 -55 30 -60
25 -4 31 -10 33 -38 3 -26 7 -32 28 -32 13 0 25 -6 25 -12 1 -7 3 -20 4 -28 1
-8 3 -29 4 -47 1 -28 5 -32 33 -35 l33 -3 -4 -54 c-3 -58 5 -71 47 -71 22 0
23 -3 17 -39 -8 -50 7 -81 40 -81 21 0 25 -5 25 -29 0 -25 4 -30 28 -33 26 -3
27 -6 30 -65 3 -62 3 -62 35 -65 l32 -3 -3 -57 -4 -57 34 -3 c31 -3 33 -5 31
-38 -4 -59 4 -78 37 -85 24 -5 30 -12 30 -34 0 -23 4 -27 28 -26 26 0 27 -2
30 -62 3 -61 4 -63 35 -71 31 -8 32 -10 32 -62 0 -53 1 -55 30 -60 26 -5 30
-10 29 -38 -2 -27 2 -32 21 -32 22 0 40 -24 30 -40 -3 -5 -1 -11 5 -15 5 -3
10 -19 10 -36 0 -26 3 -29 30 -29 l30 0 0 -60 0 -60 30 0 c32 0 33 -1 30 -72
-1 -45 0 -47 32 -56 28 -7 33 -13 32 -38 -1 -26 2 -30 24 -29 24 0 27 -5 37
-60 9 -55 12 -60 38 -63 26 -3 27 -5 27 -63 0 -58 0 -59 29 -59 31 0 43 -16
34 -49 -8 -33 5 -71 25 -71 25 0 42 -20 42 -48 0 -18 4 -22 19 -17 21 6 42
-14 40 -41 -1 -11 -1 -34 -1 -51 2 -29 5 -33 32 -33 29 0 29 -1 32 -62 3 -60
4 -63 31 -66 25 -3 27 -6 28 -55 0 -29 3 -46 6 -40 8 21 33 15 33 -7 0 -11 4
-20 10 -20 5 0 13 -15 18 -32 6 -24 15 -34 33 -37 29 -4 41 -19 33 -44 -4 -14
-1 -18 13 -17 33 4 43 0 43 -15 0 -13 1402 -15 12560 -15 10723 0 12560 2
12560 14 0 8 11 17 25 20 26 7 28 13 29 81 1 38 3 40 34 43 l34 3 -4 57 -3 57
33 3 c28 3 32 7 32 32 0 16 5 32 11 35 6 4 8 13 5 20 -6 17 13 35 30 28 11 -4
14 5 14 35 0 39 2 41 33 44 l32 3 -2 58 c-2 53 0 57 20 57 37 0 46 13 49 75 3
59 4 60 31 58 24 -2 27 2 27 28 0 17 5 29 13 29 33 0 52 28 52 77 0 45 2 48
30 53 30 6 30 7 27 62 l-2 57 32 3 c33 3 33 4 38 63 5 58 6 60 33 60 24 -1 27
3 27 32 0 29 3 33 25 33 31 0 46 33 38 83 -5 33 -4 35 32 41 l37 7 -4 57 -3
57 33 3 c28 3 32 7 33 35 3 57 4 62 13 75 4 8 17 12 27 9 16 -4 19 1 19 34 0
36 2 39 29 39 34 0 42 19 34 80 -6 39 -5 40 26 40 33 0 37 10 32 86 -3 36 20
59 49 51 17 -4 20 0 20 24 0 17 5 29 13 29 8 0 13 10 13 23 -1 16 4 21 17 19
14 -2 17 5 17 37 0 35 3 40 29 46 33 7 41 28 34 84 -5 39 -5 40 28 43 33 3 34
4 35 53 1 28 2 56 3 63 1 9 11 12 28 10 19 -2 28 2 29 12 0 8 2 23 2 32 1 10
12 18 30 20 26 3 27 6 30 61 3 56 4 57 32 57 32 0 32 0 34 85 1 36 4 40 28 43
28 3 32 12 40 92 2 19 10 26 31 28 22 3 27 8 27 32 0 23 5 30 30 35 29 6 30 8
30 66 0 58 0 59 29 59 23 0 30 5 34 27 3 15 3 42 0 60 -5 31 -4 33 26 33 24 0
31 4 31 19 0 30 11 51 26 51 11 0 14 33 14 184 0 168 -2 185 -17 188 -15 3
-18 14 -18 58 0 53 -1 55 -30 60 -25 4 -31 10 -33 38 -3 26 -7 32 -28 32 -13
0 -25 6 -25 13 -1 6 -3 19 -4 27 -1 8 -3 29 -4 47 -1 28 -5 32 -33 35 l-33 3
0 60 c0 58 -1 60 -30 65 -27 5 -30 9 -31 45 -1 69 -3 74 -31 77 -22 2 -29 9
-31 30 -3 21 -9 27 -30 30 -26 3 -27 6 -30 65 -3 62 -3 62 -35 65 l-32 3 3 57
4 57 -34 3 -33 3 3 49 c3 44 2 48 -12 37 -20 -17 -38 -5 -31 20 4 13 2 19 -9
19 -11 0 -16 9 -16 28 0 24 -4 28 -27 27 -27 0 -28 2 -33 65 -5 63 -6 65 -35
70 -29 5 -30 7 -30 60 0 53 -1 55 -30 60 -27 5 -30 9 -30 40 0 29 -4 36 -22
38 -17 3 -23 10 -23 28 0 13 -4 24 -10 24 -5 0 -10 14 -10 30 0 27 -3 30 -30
30 l-30 0 0 60 0 60 -30 0 c-17 0 -30 6 -31 13 -1 6 -2 34 -3 62 -1 47 -3 50
-31 55 -26 5 -30 10 -29 36 1 26 -2 30 -25 29 -24 0 -27 4 -35 63 -8 60 -10
62 -37 62 -29 0 -29 1 -29 60 l0 60 -30 0 c-32 0 -33 2 -30 68 1 40 -1 43 -34
57 -28 12 -36 21 -36 40 0 20 -5 25 -24 25 -23 0 -39 22 -35 46 1 5 1 24 0 42
-1 29 -4 32 -31 32 l-30 0 0 65 0 65 -30 0 c-32 0 -33 3 -30 62 1 33 -1 36
-22 32 -13 -2 -17 -2 -10 2 18 9 14 24 -7 24 -19 0 -31 18 -31 49 0 12 -8 17
-27 16 -30 0 -29 -1 -32 93 -1 29 -4 32 -31 32 l-30 0 0 60 c0 59 -1 61 -30
67 -26 5 -30 10 -30 39 0 26 -4 33 -22 36 -15 2 -23 10 -23 23 0 11 -6 26 -12
33 -7 7 -13 22 -13 32 0 13 -8 20 -27 22 -26 3 -28 6 -26 43 4 68 -4 85 -37
85 -30 0 -30 0 -30 60 l0 60 -30 0 c-30 0 -35 8 -31 52 1 11 -7 18 -26 20 -22
2 -28 8 -29 28 -1 14 -5 40 -9 58 -6 27 -12 32 -38 32 l-30 0 7 51 c8 57 -3
79 -40 79 -21 0 -23 5 -26 57 -3 55 -4 58 -30 61 -25 3 -28 8 -28 38 0 21 -4
33 -10 29 -6 -3 -19 -4 -30 0 -15 5 -20 17 -22 63 -3 57 -3 57 -36 60 -32 3
-33 5 -31 40 4 75 1 82 -31 82 -30 0 -30 1 -30 53 0 55 -12 77 -42 77 -13 0
-18 8 -18 30 0 27 -3 30 -30 30 -30 0 -30 0 -30 59 0 62 -7 71 -52 71 -18 0
-20 5 -15 33 3 18 3 45 0 60 -4 22 -11 27 -34 27 -28 0 -29 2 -29 44 0 36 -3
44 -17 42 -10 0 -18 6 -18 14 0 8 -6 19 -12 23 -7 4 -13 19 -13 32 0 21 -5 25
-30 25 -23 0 -31 5 -36 24 -3 14 -3 29 0 34 3 6 3 24 0 40 -5 24 -12 32 -33
34 -24 3 -26 7 -26 53 -1 61 -9 75 -41 75 -21 0 -24 5 -24 34 0 28 -4 35 -22
38 -19 2 -25 12 -33 58 -10 52 -13 55 -42 58 l-32 3 2 57 2 57 -33 3 c-32 3
-33 5 -31 40 4 71 1 80 -31 87 -25 5 -30 12 -30 35 0 24 -5 29 -27 32 -29 3
-30 4 -32 85 -1 28 -5 32 -33 35 l-33 3 0 60 0 60 -34 3 c-32 3 -33 5 -28 36
3 17 3 44 0 59 -4 22 -11 27 -34 27 -24 0 -28 4 -31 32 -2 27 -7 33 -28 33
-24 0 -25 3 -28 62 -3 62 -3 62 -35 65 l-32 3 3 54 c4 58 -4 71 -47 71 -22 0
-23 3 -17 40 6 37 5 40 -16 37 -18 -1 -23 3 -22 20 0 13 -5 23 -13 23 -8 0
-13 12 -13 29 0 26 -3 30 -27 28 -27 -2 -28 -1 -33 63 -5 63 -6 65 -35 70 -29
5 -30 7 -30 60 0 53 -1 55 -30 60 -28 5 -30 8 -28 49 2 34 -1 40 -11 32 -21
-18 -48 -2 -43 25 2 13 0 24 -4 24 -5 0 -9 13 -9 29 0 26 -4 30 -32 33 l-33 3
3 57 4 57 -34 9 c-30 8 -33 12 -30 43 5 56 -5 77 -36 81 -22 2 -28 9 -30 34
-2 25 -7 31 -22 27 -17 -5 -42 24 -39 44 1 4 1 25 0 45 -1 34 -4 37 -33 40
l-33 3 3 57 4 57 -34 3 c-33 3 -33 3 -30 51 4 55 -9 77 -44 77 -20 0 -24 5
-24 29 0 25 -4 30 -27 33 -26 3 -28 6 -33 63 -5 57 -6 60 -35 65 -29 5 -30 7
-30 60 0 53 -1 55 -30 60 -26 5 -30 9 -28 35 3 54 -6 76 -37 87 -23 8 -30 16
-30 37 0 23 -4 27 -27 26 -27 0 -28 2 -31 63 -3 61 -3 62 -32 62 -17 0 -30 6
-31 13 -1 6 -2 34 -3 62 -1 47 -3 50 -31 55 -29 5 -30 8 -27 50 3 39 2 42 -12
31 -19 -16 -39 -4 -33 19 3 11 -1 21 -8 24 -8 3 -15 17 -17 33 -2 22 -9 29
-30 31 -27 3 -28 5 -28 63 0 59 0 59 -30 59 -32 0 -33 1 -30 71 1 44 0 46 -32
56 -27 8 -33 14 -31 36 1 21 -3 26 -25 29 -25 3 -28 8 -36 61 -8 54 -10 57
-37 57 -29 0 -29 0 -29 65 l0 65 -30 0 c-28 0 -29 1 -32 58 -3 52 -5 57 -28
61 -30 4 -42 19 -35 47 4 18 0 21 -23 20 -26 -1 -27 2 -35 62 -8 60 -10 62
-38 62 -29 0 -29 0 -29 59 0 58 -1 60 -30 66 -29 6 -30 9 -30 61 0 53 -1 55
-31 61 -23 4 -31 12 -36 34 -4 21 -12 29 -32 31 -23 3 -26 7 -27 43 -1 83 -2
85 -34 85 l-30 0 0 60 0 60 -30 0 c-29 0 -30 1 -31 53 0 28 -3 46 -6 40 -9
-23 -33 -14 -33 12 0 14 -4 25 -10 25 -5 0 -12 11 -16 24 -4 17 -14 26 -32 28
-26 3 -27 6 -30 66 -3 60 -4 63 -32 69 -27 5 -29 8 -32 62 -3 53 -5 56 -30 59
-25 3 -28 7 -28 41 0 34 -2 38 -23 34 -20 -4 -24 1 -36 56 -13 58 -15 61 -43
61 -30 0 -30 0 -24 43 9 58 0 77 -35 77 -29 0 -29 0 -29 60 0 59 -1 61 -30 67
-25 4 -30 10 -30 34 0 23 -5 28 -27 31 -27 3 -28 6 -31 60 -3 57 -3 57 -38 64
-36 7 -36 7 -30 49 9 56 0 75 -35 75 -28 0 -29 2 -29 44 0 39 -2 44 -20 39
-15 -4 -20 0 -20 16 0 11 -4 21 -10 21 -5 0 -10 14 -10 31 0 26 -3 30 -20 26
-31 -8 -54 15 -47 49 10 51 -2 83 -32 86 -25 3 -26 6 -23 52 2 55 -10 76 -44
76 -21 0 -24 5 -24 34 0 28 -4 35 -22 38 -19 2 -25 12 -32 55 -9 48 -12 52
-42 58 l-33 6 2 57 2 57 -34 3 c-33 3 -33 4 -27 46 9 57 0 76 -35 76 -26 0
-29 3 -29 35 0 30 -3 35 -24 35 -23 0 -39 22 -35 46 1 5 1 23 0 41 -1 28 -5
32 -33 35 l-33 3 0 60 0 60 -34 3 c-33 3 -33 4 -27 46 9 57 0 76 -35 76 -25 0
-29 4 -29 29 0 25 -4 30 -27 33 -27 3 -28 6 -31 65 -3 62 -3 62 -35 65 l-32 3
3 57 4 57 -34 3 c-30 3 -33 6 -34 38 -2 58 -5 76 -11 62 -2 -6 -9 -10 -13 -7
-5 3 -7 12 -3 20 3 10 -2 15 -16 15 -17 0 -21 6 -21 31 0 24 -3 29 -17 25 -31
-10 -42 8 -45 69 -3 58 -4 60 -33 65 -29 5 -30 7 -30 60 0 53 -1 55 -30 60
-27 5 -30 9 -30 45 0 36 -2 40 -22 37 -19 -3 -23 2 -23 22 0 14 -4 26 -10 26
-5 0 -10 14 -10 30 0 27 -3 30 -30 30 -32 0 -33 1 -30 73 1 44 0 47 -24 47
-33 0 -41 15 -41 75 0 47 -1 50 -30 55 -27 5 -30 9 -28 39 1 24 -2 31 -13 27
-30 -11 -43 6 -50 64 -6 57 -7 59 -38 62 l-31 3 3 57 4 57 -34 3 -33 3 0 55
c0 53 -1 55 -32 65 -27 7 -33 14 -33 37 0 23 -4 28 -24 28 -23 0 -39 22 -35
46 1 5 1 24 0 42 -1 29 -4 32 -31 32 -17 0 -30 6 -31 13 -1 6 -2 34 -3 62 -1
47 -3 50 -31 55 -29 5 -30 7 -30 60 0 53 -1 55 -30 60 -24 4 -31 11 -35 35 -4
24 -10 30 -30 30 -24 0 -25 3 -28 63 -3 61 -3 62 -32 62 -32 0 -33 1 -30 72 1
45 0 47 -32 56 -30 8 -33 11 -30 45 2 30 -1 36 -20 39 -15 2 -22 9 -20 19 1 9
-4 19 -13 23 -8 3 -15 17 -15 31 0 15 -4 24 -10 20 -6 -3 -19 -3 -30 0 -17 5
-20 15 -20 71 l0 64 -30 0 -30 0 0 60 c0 60 0 60 -29 60 -34 0 -43 17 -34 63
6 29 5 31 -10 18 -22 -17 -50 3 -42 30 3 9 1 20 -5 24 -5 3 -10 17 -10 31 0
20 -5 24 -30 24 -29 0 -29 1 -32 63 -3 59 -4 62 -30 65 -25 3 -27 7 -30 60 -3
52 -5 57 -28 61 -31 4 -41 19 -33 50 5 20 3 23 -11 18 -27 -10 -46 3 -46 33 0
15 -3 42 -6 59 -6 26 -11 31 -35 31 -29 0 -29 1 -29 60 l0 60 -30 0 c-30 0
-30 1 -30 53 0 56 -12 77 -42 77 -13 0 -20 10 -24 30 -5 23 -12 30 -30 30 -21
0 -24 5 -24 34 0 18 -3 48 -6 65 -6 26 -11 31 -35 31 -29 0 -29 1 -29 60 l0
60 -30 0 c-30 0 -30 0 -30 56 0 52 -1 56 -30 66 -22 7 -33 19 -36 38 -5 20
-11 26 -24 23 -25 -7 -35 14 -35 72 0 49 -1 50 -32 53 -32 3 -32 3 -35 65 -3
59 -4 62 -30 65 -26 3 -28 7 -28 50 0 31 -3 42 -9 33 -13 -21 -44 -5 -38 19 3
11 1 20 -3 20 -5 0 -10 15 -12 33 -3 28 -7 32 -35 35 l-32 3 2 57 2 57 -32 3
-33 3 0 60 c0 58 -1 60 -30 66 -26 5 -30 10 -30 39 0 26 -3 32 -15 28 -19 -8
-46 14 -44 35 1 9 1 30 0 48 -1 28 -5 32 -33 35 l-33 3 0 60 0 60 -32 3 -33 3
0 60 c0 59 0 59 -30 59 -28 0 -30 3 -30 34 0 30 -3 35 -27 38 -26 3 -28 6 -31
60 -3 56 -3 57 -35 60 -32 3 -32 4 -29 51 4 55 -9 77 -44 77 -21 0 -23 5 -26
58 -3 54 -4 57 -30 60 -23 3 -28 8 -28 32 0 24 -5 29 -27 32 -26 3 -28 6 -33
63 -5 59 -5 60 -38 63 l-32 3 2 57 c3 56 3 56 -27 62 -26 4 -31 10 -35 45 -3
27 -10 40 -20 40 -10 0 -14 8 -13 23 2 14 -3 22 -12 22 -10 0 -15 10 -15 29 0
24 -3 28 -20 24 -30 -8 -53 16 -46 49 3 15 3 42 0 58 -6 25 -11 30 -36 30 -30
0 -30 0 -24 43 9 58 0 77 -35 77 -26 0 -29 3 -29 34 0 28 -4 35 -22 38 -20 3
-24 12 -32 60 -9 54 -11 57 -40 60 l-31 3 3 57 4 57 -34 3 c-32 3 -33 4 -30
46 3 54 -12 82 -43 82 -21 0 -25 5 -25 30 0 23 -5 30 -19 30 -27 0 -38 19 -40
70 -1 50 -6 57 -41 62 -23 3 -25 7 -25 58 0 53 -1 55 -30 60 -27 5 -30 9 -28
40 4 58 -4 77 -37 83 -26 6 -30 11 -30 37 0 24 -4 31 -17 29 -40 -4 -43 0 -43
61 l0 60 -30 0 c-17 0 -30 6 -31 13 -1 6 -2 34 -3 62 -1 47 -3 50 -31 55 -28
5 -30 8 -27 48 2 32 -1 42 -13 42 -8 0 -15 7 -15 15 0 8 -9 15 -20 15 -15 0
-20 7 -20 29 0 25 -4 30 -27 33 -27 3 -28 6 -31 65 -3 62 -3 62 -35 65 l-32 3
3 57 4 57 -37 7 c-35 6 -36 8 -33 43 2 30 0 35 -15 33 -10 -2 -20 5 -23 15 -3
10 -10 26 -15 35 -5 10 -9 27 -9 38 0 16 -7 20 -30 20 l-30 0 0 64 0 65 -32 3
-33 3 3 57 4 57 -34 3 c-30 3 -33 6 -32 35 2 27 -2 32 -25 35 -23 3 -27 9 -35
61 -9 54 -11 57 -38 57 -28 0 -28 1 -28 60 0 59 0 60 -32 68 -32 8 -33 10 -33
62 0 53 -1 55 -30 60 -26 5 -30 10 -29 36 1 27 -1 30 -21 26 -33 -6 -38 5 -43
101 -2 23 -6 27 -32 27 -20 0 -30 5 -30 15 0 13 -225 15 -1965 15 -1740 0
-1965 -2 -1965 -15z m2000 -10354 c0 -26 4 -30 33 -33 l32 -3 0 -60 c0 -58 1
-60 30 -65 29 -5 30 -7 30 -60 0 -53 1 -55 30 -60 28 -5 30 -8 28 -50 -1 -28
1 -40 6 -31 6 8 16 11 31 6 17 -5 21 -13 17 -31 -2 -13 0 -24 4 -24 5 0 9 -13
9 -29 0 -26 4 -30 33 -33 l32 -3 -4 -54 c-3 -57 5 -71 46 -71 20 0 22 -4 20
-57 -2 -56 -2 -57 28 -63 25 -4 31 -10 33 -36 2 -25 7 -31 22 -27 17 5 42 -24
39 -44 -1 -4 -1 -25 0 -45 1 -34 4 -37 34 -40 l32 -3 -3 -57 -4 -57 34 -3 c33
-3 33 -3 33 -56 0 -54 12 -72 48 -72 12 0 17 -8 17 -31 0 -26 3 -30 20 -26 28
7 38 -11 42 -73 3 -52 4 -55 33 -60 29 -5 30 -7 30 -60 0 -53 1 -55 30 -60 28
-5 30 -8 27 -48 -2 -38 0 -42 20 -39 15 1 23 -3 23 -13 0 -8 6 -19 13 -23 6
-4 12 -19 12 -32 0 -18 6 -24 28 -27 26 -3 27 -6 30 -65 3 -62 3 -63 32 -63
17 0 30 -6 31 -12 1 -7 2 -35 3 -63 1 -47 3 -50 31 -55 26 -5 30 -10 29 -37
-2 -27 2 -32 25 -35 18 -2 26 -9 27 -23 1 -11 4 -27 7 -35 3 -8 7 -24 9 -35 2
-13 12 -21 31 -23 26 -3 27 -5 27 -63 0 -59 0 -59 30 -59 17 0 31 -6 31 -12 1
-7 2 -33 3 -58 1 -36 5 -45 21 -48 34 -7 46 -23 40 -52 -5 -25 -4 -26 23 -22
29 4 29 3 36 -57 7 -59 8 -61 36 -61 29 0 29 -1 32 -62 3 -60 4 -63 30 -66 25
-3 27 -7 30 -60 3 -54 5 -57 30 -60 22 -3 30 -11 36 -35 5 -18 15 -31 22 -29
21 5 40 -19 38 -47 -4 -69 0 -81 32 -81 30 0 30 0 30 -59 0 -57 1 -59 30 -64
28 -6 30 -10 30 -51 0 -39 2 -44 20 -39 14 4 20 0 20 -12 0 -9 7 -23 15 -31 8
-9 15 -24 15 -34 0 -13 5 -17 15 -14 24 10 46 -16 43 -50 -4 -74 0 -86 32 -86
l30 0 0 -60 0 -60 30 0 c28 0 30 -2 30 -39 0 -34 3 -38 20 -34 12 3 21 0 24
-8 2 -8 10 -35 17 -61 12 -43 16 -48 41 -48 28 0 28 -1 26 -57 -3 -56 -3 -57
29 -66 31 -9 32 -12 35 -66 3 -53 5 -56 31 -59 24 -3 27 -8 27 -38 0 -21 4
-33 10 -29 6 3 19 4 30 0 15 -5 20 -17 22 -63 3 -57 3 -57 37 -60 33 -3 33 -4
27 -46 -9 -57 0 -76 35 -76 29 0 29 0 29 -60 0 -59 1 -61 30 -66 25 -5 30 -11
30 -35 0 -26 4 -29 30 -29 30 0 30 0 30 -60 l0 -59 36 -7 c36 -7 36 -7 30 -49
-9 -56 0 -75 35 -75 28 0 29 -2 29 -50 0 -42 2 -48 17 -43 12 5 15 2 10 -10
-5 -12 -1 -17 13 -17 16 0 20 -7 20 -30 0 -26 3 -30 29 -30 36 0 40 -10 33
-77 l-5 -52 34 -3 c34 -3 34 -3 31 -52 -2 -55 10 -76 44 -76 21 0 24 -5 24
-38 0 -34 3 -38 23 -38 17 1 22 -4 21 -21 0 -13 3 -23 8 -23 4 0 8 -13 8 -29
0 -25 5 -30 34 -35 l35 -7 -2 -57 -2 -57 33 -3 c32 -3 33 -5 31 -40 -4 -75 -1
-82 31 -82 28 0 30 -3 30 -35 0 -30 3 -35 24 -35 23 0 39 -22 35 -46 -1 -5 -1
-23 0 -41 1 -28 5 -32 34 -35 l32 -3 0 -60 0 -60 32 -3 c31 -3 32 -4 31 -51
-2 -57 6 -71 38 -71 20 0 24 -5 24 -29 0 -25 4 -30 28 -33 26 -3 27 -6 30 -65
3 -62 3 -62 35 -65 32 -3 32 -3 32 -58 0 -53 1 -55 30 -60 26 -5 30 -10 31
-40 3 -66 3 -70 19 -64 11 5 13 2 9 -10 -4 -12 0 -16 15 -16 17 0 21 -6 21
-31 0 -24 3 -29 18 -25 30 10 41 -8 44 -69 3 -58 4 -60 33 -65 29 -5 30 -7 30
-60 0 -53 1 -55 30 -60 27 -5 30 -9 30 -45 0 -36 2 -40 23 -37 18 3 22 -2 22
-22 0 -14 5 -26 10 -26 6 0 10 -13 10 -29 0 -26 4 -30 33 -33 l32 -3 -3 -57
c-4 -55 -3 -58 20 -58 39 0 50 -13 43 -53 -10 -50 1 -75 33 -79 25 -3 27 -6
25 -42 -2 -31 0 -36 11 -27 27 22 45 2 52 -59 6 -57 7 -59 38 -62 l31 -3 -3
-57 -4 -57 34 -3 33 -3 0 -55 c0 -53 1 -55 33 -65 26 -7 32 -14 32 -36 0 -23
5 -28 28 -31 26 -3 27 -6 30 -60 3 -57 4 -58 32 -58 23 0 31 -5 36 -24 3 -14
3 -30 -1 -35 -4 -8 -1384 -11 -4601 -11 -4417 0 -4594 1 -4594 18 0 23 19 42
42 42 14 0 18 8 18 35 0 32 3 35 29 35 35 0 44 19 35 76 -6 42 -6 43 27 46
l34 3 0 55 c0 67 9 84 41 76 21 -6 24 -3 24 24 0 20 5 30 16 30 8 0 12 5 9 10
-4 6 -4 18 -1 27 5 12 9 13 21 3 13 -11 15 -5 15 39 0 50 1 51 29 51 35 0 44
19 35 76 -6 42 -6 43 27 46 34 3 34 3 39 63 5 57 7 60 33 63 22 3 27 8 27 32
0 24 5 29 28 32 26 3 27 6 30 61 3 52 5 57 26 57 34 0 46 21 44 76 -3 47 -2
49 25 52 32 4 37 13 40 73 2 40 5 44 30 47 24 3 27 8 27 38 0 31 2 34 30 34
l30 0 0 60 c0 60 0 60 29 60 35 0 44 19 35 76 -6 40 -5 42 24 48 23 6 32 15
41 45 6 21 11 46 11 55 0 15 11 20 38 17 7 -1 12 11 12 33 0 30 3 35 28 38 26
3 27 6 30 66 3 61 3 62 32 62 32 0 31 -4 34 90 1 30 5 35 28 38 20 2 28 10 33
33 4 16 11 29 16 29 5 0 9 10 9 21 0 16 5 20 20 16 18 -5 20 0 20 38 0 40 2
44 28 47 26 3 27 6 30 61 3 55 5 58 32 63 22 5 29 13 34 39 4 18 4 40 0 49 -9
22 15 48 37 41 15 -5 19 -1 19 19 0 20 8 29 35 40 34 15 35 17 35 70 0 56 0
56 30 56 l30 0 0 60 c0 60 0 60 29 60 28 0 30 2 38 63 8 59 9 62 35 62 22 -1
26 3 23 20 -7 27 5 42 35 46 22 4 25 9 26 50 1 63 9 79 39 79 24 0 25 2 25 60
l0 60 30 0 c25 0 30 4 30 24 0 14 5 28 10 31 6 4 8 14 6 23 -8 24 8 44 30 40
14 -2 19 3 20 22 1 45 4 49 32 52 25 3 27 7 29 48 1 25 2 50 2 57 1 6 13 13
29 15 26 3 27 6 32 68 5 63 6 65 33 65 21 -1 27 4 27 22 0 12 8 26 17 32 10 5
15 13 11 17 -5 4 -3 13 3 21 9 10 15 11 26 1 13 -10 14 -5 11 33 -3 42 -2 44
30 54 32 9 33 12 32 55 -3 69 -2 70 30 70 29 0 29 1 32 63 3 59 4 62 30 65 21
3 27 9 30 30 2 21 9 28 31 30 28 3 30 8 31 82 1 30 5 35 31 40 28 5 30 8 31
55 1 28 2 56 3 63 1 6 14 12 31 12 27 0 30 3 31 33 2 81 3 82 32 85 22 3 27 8
27 32 0 25 5 31 33 38 31 8 32 10 32 63 0 54 0 54 33 57 l34 3 -4 57 c-3 55
-3 56 30 64 27 7 32 13 32 38 0 17 4 30 8 30 5 0 8 10 8 23 -1 18 4 22 27 20
26 -2 27 -1 21 38 -6 37 -5 39 18 39 37 0 50 22 46 77 -3 47 -2 48 28 53 30 5
31 6 29 58 -2 59 14 87 46 77 16 -5 19 -1 19 24 0 20 5 31 14 31 8 0 13 8 12
18 -1 11 6 17 19 17 17 0 20 6 17 42 -4 41 -3 42 30 45 l33 3 -2 57 -2 56 34
6 c34 7 34 7 37 69 3 61 3 62 31 59 24 -2 27 0 27 28 0 22 5 30 18 30 35 0 46
17 47 72 0 51 1 53 30 58 29 6 30 7 28 62 l-2 57 32 3 c31 3 32 4 37 63 5 58
6 60 33 60 24 -1 27 3 27 32 0 29 3 33 25 33 31 0 46 33 38 84 -5 33 -4 36 18
36 43 0 51 13 47 71 l-3 54 32 3 c30 3 31 5 38 64 7 56 9 60 31 55 22 -4 24
-1 24 34 0 36 2 39 29 39 23 0 30 5 34 27 3 15 3 42 0 60 -5 31 -4 33 26 33
33 0 37 10 32 86 -3 36 20 59 49 51 17 -4 20 0 20 24 0 16 4 29 8 29 5 0 8 10
8 23 -1 17 4 22 22 21 19 0 22 4 22 36 0 34 3 38 30 44 32 6 35 15 31 88 -2
35 -1 37 31 40 32 3 33 4 34 53 1 28 2 56 3 63 1 9 11 12 29 10 24 -3 27 1 30
30 3 25 8 32 24 32 14 0 18 5 14 16 -4 12 -2 15 9 10 12 -4 15 4 15 44 0 49 1
50 30 50 32 0 32 0 34 85 1 36 4 40 31 45 29 5 30 8 35 65 5 55 7 60 29 60 18
0 25 6 26 23 2 26 20 42 48 42 14 0 17 10 17 60 l0 60 35 0 c32 0 35 -2 35
-29z"/>
</g>
</svg>
